Coordinates
nRows=400
nColumns=2
inDegrees=yes
endheader
time	ankle_angle_r	
0	  5.132041	
0.0332661	  5.116684	
0.0665323	  5.218506	
0.0997984	  5.147008	
0.133065	  5.163331	
0.166331	  5.172729	
0.199597	  5.157471	
0.232863	  5.187988	
0.266129	  5.192301	
0.299395	  5.172729	
0.332661	  5.172729	
0.365927	  5.236955	
0.399194	  5.184062	
0.43246	  5.165071	
0.465726	  5.214773	
0.498992	  5.184352	
0.532258	  5.130492	
0.565524	  5.176172	
0.59879	  5.057351	
0.632056	  5.093186	
0.665323	  5.184836	
0.698589	  5.117806	
0.731855	  4.995543	
0.765121	  5.050659	
0.798387	  5.035400	
0.831653	  5.012890	
0.864919	  5.050659	
0.898185	  5.093960	
0.931452	  5.009641	
0.964718	  5.020142	
0.997984	  5.046288	
1.03125	  5.037489	
1.06452	  5.098428	
1.09778	  5.052555	
1.13105	  5.042596	
1.16431	  5.098138	
1.19758	  5.110089	
1.23085	  5.171221	
1.26411	  5.097848	
1.29738	  5.083808	
1.33065	  5.143431	
1.36391	  5.156349	
1.39718	  5.129004	
1.43044	  5.187059	
1.46371	  5.219338	
1.49698	  5.157471	
1.53024	  5.203247	
1.56351	  5.187988	
1.59677	  5.202802	
1.63004	  5.233765	
1.66331	  5.249023	
1.69657	  5.203247	
1.72984	  5.233765	
1.7631	  5.233765	
1.79637	  5.218506	
1.82964	  5.263819	
1.8629	  5.233765	
1.89617	  5.218506	
1.92944	  5.234286	
1.9627	  5.249023	
1.99597	  5.201818	
2.02923	  5.234576	
2.0625	  5.172729	
2.09577	  5.157471	
2.12903	  5.171628	
2.1623	  5.172729	
2.19556	  5.097731	
2.22883	  5.108911	
2.2621	  5.160448	
2.29536	  5.067503	
2.32863	  5.065918	
2.3619	  5.170951	
2.39516	  5.004883	
2.42843	  5.037372	
2.46169	  5.054796	
2.49496	  5.068083	
2.52823	  5.081177	
2.56149	  5.037759	
2.59476	  5.065918	
2.62802	  5.058315	
2.66129	  5.124304	
2.69456	  5.050659	
2.72782	  5.117378	
2.76109	  5.099374	
2.79435	  5.154435	
2.82762	  5.114826	
2.86089	  5.057117	
2.89415	  5.108369	
2.92742	  5.164315	
2.96069	  5.142212	
2.99395	  5.145827	
3.02722	  5.172729	
3.06048	  5.187988	
3.09375	  5.180177	
3.12702	  5.191990	
3.16028	  5.146311	
3.19355	  5.157471	
3.22681	  5.192281	
3.26008	  5.146601	
3.29335	  5.142212	
3.32661	  5.213923	
3.35988	  5.178630	
3.39315	  5.157471	
3.42641	  5.187988	
3.45968	  5.152502	
3.49294	  5.157471	
3.52621	  5.187988	
3.55948	  5.136953	
3.59274	  5.132309	
3.62601	  5.157471	
3.65927	  5.065918	
3.69254	  5.048980	
3.72581	  5.121211	
3.75907	  5.065918	
3.79234	  5.054046	
3.8256	  5.050659	
3.85887	  5.081177	
3.89214	  5.032594	
3.9254	  5.065918	
3.95867	  5.004883	
3.99194	  5.044143	
4.0252	  5.072531	
4.05847	  5.048819	
4.09173	  5.096436	
4.125	  5.096436	
4.15827	  5.058918	
4.19153	  5.089339	
4.2248	  5.088369	
4.25806	  5.097115	
4.29133	  5.196347	
4.3246	  5.172729	
4.35786	  5.187988	
4.39113	  5.180218	
4.4244	  5.226279	
4.45766	  5.119564	
4.49093	  5.241057	
4.52419	  5.224834	
4.55746	  5.202187	
4.59073	  5.233765	
4.62399	  5.225411	
4.65726	  5.210056	
4.69052	  5.240477	
4.72379	  5.218506	
4.75706	  5.216285	
4.79032	  5.233765	
4.82359	  5.231157	
4.85685	  5.197018	
4.89012	  5.227633	
4.92339	  5.251871	
4.95665	  5.187988	
4.98992	  5.212664	
5.02319	  5.233765	
5.05645	  5.191949	
5.08972	  5.182436	
5.12298	  5.178185	
5.15625	  5.152112	
5.18952	  5.126953	
5.22278	  5.101601	
5.25605	  5.035400	
5.28931	  5.030086	
5.32258	  5.101943	
5.35585	  5.030622	
5.38911	  5.070600	
5.42238	  5.032318	
5.45565	  5.046171	
5.48891	  5.098519	
5.52218	  5.031105	
5.55544	  5.061719	
5.58871	  5.061816	
5.62198	  5.046654	
5.65524	  5.096436	
5.68851	  5.119329	
5.72177	  5.043229	
5.75504	  5.126953	
5.78831	  5.153949	
5.82157	  5.169304	
5.85484	  5.164127	
5.8881	  5.196784	
5.92137	  5.145347	
5.95464	  5.181912	
5.9879	  5.190930	
6.02117	  5.172729	
6.05444	  5.157471	
6.0877	  5.200595	
6.12097	  5.144767	
6.15423	  5.152555	
6.1875	  5.211421	
6.22077	  5.168200	
6.25403	  5.183652	
6.2873	  5.187988	
6.32056	  5.170755	
6.35383	  5.157471	
6.3871	  5.203247	
6.42036	  5.116748	
6.45363	  5.159059	
6.4869	  5.206230	
6.52016	  5.154682	
6.55343	  5.142212	
6.58669	  5.108090	
6.61996	  5.144421	
6.65323	  5.067934	
6.68649	  5.112606	
6.71976	  5.065104	
6.75302	  5.036118	
6.78629	  5.034158	
6.81956	  5.005407	
6.85282	  5.036684	
6.88609	  5.050659	
6.91935	  4.990327	
6.95262	  5.035538	
6.98589	  5.035400	
7.01915	  4.959218	
7.05242	  5.049897	
7.08569	  5.081426	
7.11895	  5.020833	
7.15222	  5.141327	
7.18548	  5.095896	
7.21875	  5.126953	
7.25202	  5.171265	
7.28528	  5.156641	
7.31855	  5.171803	
7.35181	  5.189011	
7.38508	  5.218506	
7.41835	  5.189204	
7.45161	  5.233765	
7.48488	  5.261464	
7.51815	  5.217000	
7.55141	  5.250626	
7.58468	  5.232065	
7.61794	  5.161063	
7.65121	  5.235657	
7.68448	  5.245045	
7.71774	  5.174816	
7.75101	  5.238130	
7.78427	  5.264282	
7.81754	  5.205623	
7.85081	  5.218506	
7.88407	  5.246454	
7.91734	  5.215840	
7.9506	  5.190751	
7.98387	  5.182269	
8.01714	  5.148124	
8.0504	  5.178835	
8.08367	  5.221655	
8.11694	  5.114941	
8.1502	  5.142212	
8.18347	  5.088056	
8.21673	  5.096436	
8.25	  5.130586	
8.28327	  5.084907	
8.31653	  5.062091	
8.3498	  5.134799	
8.38306	  5.085196	
8.41633	  5.031284	
8.4496	  5.096436	
8.48286	  5.020142	
8.51613	  5.024548	
8.5494	  5.044407	
8.58266	  5.061318	
8.61593	  5.121088	
8.64919	  5.137419	
8.68246	  5.055549	
8.71573	  5.091449	
8.74899	  5.111694	
8.78226	  5.086075	
8.81552	  5.086453	
8.84879	  5.157471	
8.88206	  5.122634	
8.91532	  5.122828	
8.94859	  5.218506	
8.98185	  5.142212	
9.01512	  5.142212	
9.04839	  5.209200	
9.08165	  5.191147	
9.11492	  5.169765	
9.14819	  5.206019	
9.18145	  5.175308	
9.21472	  5.135775	
9.24798	  5.164004	
9.28125	  5.164101	
9.31452	  5.157471	
9.34778	  5.226941	
9.38105	  5.187988	
9.41431	  5.126953	
9.44758	  5.196133	
9.48085	  5.127791	
9.51411	  5.158115	
9.54738	  5.157471	
9.58065	  5.127211	
9.61391	  5.096564	
9.64718	  5.058353	
9.68044	  5.119163	
9.71371	  5.065403	
9.74698	  5.058643	
9.78024	  5.041676	
9.81351	  5.119872	
9.84677	  5.088161	
9.88004	  5.050659	
9.91331	  5.087968	
9.94657	  5.118389	
9.97984	  5.067981	
10.0131	  5.089934	
10.0464	  5.090031	
10.0796	  5.105386	
10.1129	  5.117906	
10.1462	  5.081177	
10.1794	  5.148230	
10.2127	  5.126953	
10.246	  5.193813	
10.2792	  5.157471	
10.3125	  5.203247	
10.3458	  5.228230	
10.379	  5.172729	
10.4123	  5.192565	
10.4456	  5.228520	
10.4788	  5.172729	
10.5121	  5.218506	
10.5454	  5.228810	
10.5786	  5.208790	
10.6119	  5.233765	
10.6452	  5.229100	
10.6784	  5.192556	
10.7117	  5.218506	
10.745	  5.233765	
10.7782	  5.187988	
10.8115	  5.210144	
10.8448	  5.199163	
10.878	  5.180013	
10.9113	  5.176620	
10.9446	  5.149882	
10.9778	  5.126953	
11.0111	  5.169129	
11.0444	  5.111694	
11.0776	  5.096436	
11.1109	  5.138901	
11.1442	  5.074749	
11.1774	  5.035400	
11.2107	  5.093415	
11.244	  5.050659	
11.2772	  5.050659	
11.3105	  5.070254	
11.3437	  5.081177	
11.377	  5.060843	
11.4103	  5.081177	
11.4435	  5.050659	
11.4768	  5.089694	
11.5101	  5.050659	
11.5433	  5.033347	
11.5766	  5.031486	
11.6099	  5.008604	
11.6431	  4.991388	
11.6764	  5.003216	
11.7097	  5.006453	
11.7429	  5.018668	
11.7762	  5.020142	
11.8095	  5.065918	
11.8427	  5.003699	
11.876	  5.003796	
11.9093	  5.035400	
11.9425	  5.064131	
11.9758	  5.005680	
12.0091	  5.081177	
12.0423	  5.034194	
12.0756	  5.021155	
12.1089	  5.035810	
12.1421	  5.034773	
12.1754	  5.035617	
12.2087	  5.035641	
12.2419	  5.065895	
12.2752	  5.035400	
12.3085	  5.081177	
12.3417	  5.050659	
12.375	  5.157834	
12.4083	  5.127413	
12.4415	  5.065918	
12.4748	  5.172729	
12.5081	  5.156721	
12.5413	  5.171036	
12.5746	  5.202304	
12.6079	  5.186948	
12.6411	  5.172729	
12.6744	  5.220973	
12.7077	  5.233765	
12.7409	  5.201820	
12.7742	  5.233765	
12.8075	  5.247403	
12.8407	  5.191422	
12.874	  5.245396	
12.9073	  5.207067	
12.9405	  5.216499	
12.9738	  5.246920	
13.0071	  5.246823	
13.0403	  5.175026	
13.0736	  5.220900	
13.1069	  5.231274	
13.1401	  5.182814	
13.1734	  5.213982	
13.2067	  5.172729	
13.2399	  5.096436	
13.2732	  5.151523	
